<svg width="28" height="17" viewBox="0 0 28 17" fill="none" xmlns="http://www.w3.org/2000/svg">
<path d="M20.8309 5.32066L23.1536 1.22047C23.2846 0.991071 23.2054 0.698431 22.9828 0.56551C22.7604 0.431517 22.4708 0.509768 22.3428 0.739165L19.9896 4.89189C18.1942 4.05684 16.1734 3.59054 14.0001 3.59054C11.8268 3.59054 9.80577 4.05684 8.01052 4.89189L5.65735 0.739165C5.52629 0.509768 5.23975 0.431517 5.01412 0.56551C4.7886 0.698431 4.71244 0.991071 4.84351 1.22047L7.16617 5.32066C3.16091 7.53209 0.448103 11.6634 0 16.5H28C27.552 11.6634 24.8391 7.53209 20.8309 5.32066ZM7.57157 12.4931C6.92235 12.4931 6.39798 11.956 6.39798 11.2968C6.39798 10.6354 6.9254 10.1016 7.57157 10.1016C8.22079 10.1016 8.74505 10.6386 8.74505 11.2968C8.74831 11.956 8.22079 12.4931 7.57157 12.4931ZM20.4255 12.4931C19.7763 12.4931 19.2519 11.956 19.2519 11.2968C19.2519 10.6354 19.7793 10.1016 20.4255 10.1016C21.0747 10.1016 21.599 10.6386 21.599 11.2968C21.6022 11.956 21.0747 12.4931 20.4255 12.4931Z" fill="#1D1D1B"/>
</svg>
