<svg width="29" height="16" viewBox="0 0 29 16" fill="none" xmlns="http://www.w3.org/2000/svg">
<path d="M21.7996 4.82066L24.1223 0.720468C24.2534 0.491071 24.1742 0.198431 23.9516 0.06551C23.7291 -0.0684834 23.4395 0.00976822 23.3115 0.239165L20.9583 4.39189C19.163 3.55684 17.1421 3.09054 14.9688 3.09054C12.7955 3.09054 10.7745 3.55684 8.97927 4.39189L6.6261 0.239165C6.49504 0.00976822 6.2085 -0.0684834 5.98287 0.06551C5.75735 0.198431 5.68119 0.491071 5.81226 0.720468L8.13492 4.82066C4.12966 7.03209 1.41685 11.1634 0.96875 16H28.9688C28.5208 11.1634 25.8078 7.03209 21.7996 4.82066ZM8.54032 11.9931C7.8911 11.9931 7.36673 11.456 7.36673 10.7968C7.36673 10.1354 7.89415 9.60156 8.54032 9.60156C9.18954 9.60156 9.7138 10.1386 9.7138 10.7968C9.71706 11.456 9.18954 11.9931 8.54032 11.9931ZM21.3942 11.9931C20.745 11.9931 20.2206 11.456 20.2206 10.7968C20.2206 10.1354 20.7481 9.60156 21.3942 9.60156C22.0435 9.60156 22.5677 10.1386 22.5677 10.7968C22.571 11.456 22.0435 11.9931 21.3942 11.9931Z" fill="white"/>
</svg>
