<svg width="51" height="59" viewBox="0 0 51 59" fill="none" xmlns="http://www.w3.org/2000/svg">
<path fill-rule="evenodd" clip-rule="evenodd" d="M25.5003 0.5L0.125 15.0001V43.9999L25.5003 58.5L50.875 43.9999V15.0001L25.5003 0.5Z" fill="#00A88E"/>
<path fill-rule="evenodd" clip-rule="evenodd" d="M12.8125 43.0938H30.9375V37.6562H12.8125V43.0938Z" fill="#4D4D4F"/>
<path fill-rule="evenodd" clip-rule="evenodd" d="M37.2812 41.3055C37.2812 42.2891 36.2614 43.0938 35.0151 43.0938C33.7693 43.0938 32.75 42.2891 32.75 41.3055V39.4445C32.75 38.4609 33.7693 37.6562 35.0151 37.6562C36.2614 37.6562 37.2812 38.4609 37.2812 39.4445V41.3055Z" fill="#4D4D4F"/>
<path fill-rule="evenodd" clip-rule="evenodd" d="M32.75 41.2812V42.1875C32.75 43.3045 33.7693 44 35.0151 44C36.2614 44 37.2812 43.3045 37.2812 42.1875V41.2812C37.2812 42.3983 36.2614 43.0938 35.0151 43.0938C33.7693 43.0938 32.75 42.3983 32.75 41.2812Z" fill="#6D6E71"/>
<path fill-rule="evenodd" clip-rule="evenodd" d="M12.8125 44H30.9375V43.0938H12.8125V44Z" fill="#6D6E71"/>
<path fill-rule="evenodd" clip-rule="evenodd" d="M12.8125 16.8125H38.1875V15H12.8125V16.8125Z" fill="#4D4D4F"/>
<path fill-rule="evenodd" clip-rule="evenodd" d="M30.0312 34.9375C30.0312 33.9364 28.0027 33.125 25.5 33.125C22.9973 33.125 20.9688 33.9364 20.9688 34.9375C20.9688 35.9386 22.9973 36.75 25.5 36.75C28.0027 36.75 30.0312 35.9386 30.0312 34.9375Z" fill="#4D4D4F"/>
<path fill-rule="evenodd" clip-rule="evenodd" d="M12.8125 34.9375H38.1875V16.8125H12.8125V34.9375Z" fill="#6D6E71"/>
<path fill-rule="evenodd" clip-rule="evenodd" d="M14.625 33.125H36.375V18.625H14.625V33.125Z" fill="#01A59C"/>
<path fill-rule="evenodd" clip-rule="evenodd" d="M25.0469 20.4375L20.9688 22.7788V27.1035C20.9688 29.9528 25.0469 31.3125 25.0469 31.3125C25.0469 31.3125 29.125 29.9528 29.125 27.1035V22.7788L25.0469 20.4375ZM25.0464 21.7868L27.9384 23.4474V27.1035C27.9384 28.6396 25.91 29.682 25.0464 30.0558C24.1811 29.6815 22.1543 28.6391 22.1543 27.1035V23.4474L25.0464 21.7868Z" fill="#FFFFFE"/>
</svg>
