<svg width="23" height="13" viewBox="0 0 23 13" fill="none" xmlns="http://www.w3.org/2000/svg">
<path d="M0.106923 12.3071H2.0089V3.7932H0.106923V12.3071ZM1.0541 2.67668C1.6499 2.67668 2.11584 2.19475 2.11584 1.59236C2.11584 0.981913 1.6499 0.5 1.0541 0.5C0.465942 0.5 0 0.981934 0 1.59236C0 2.19477 0.465942 2.67668 1.0541 2.67668ZM8.34144 0.524037C5.12572 0.524037 3.10907 2.82925 3.10907 6.51603C3.10907 10.2028 5.12552 12.5 8.34144 12.5C11.5495 12.5 13.5662 10.2028 13.5662 6.51603C13.5662 2.82925 11.5497 0.524037 8.34144 0.524037ZM8.34144 2.2911C10.3045 2.2911 11.5572 3.92965 11.5572 6.51599C11.5572 9.09426 10.3045 10.7329 8.34144 10.7329C6.37074 10.7329 5.12572 9.09431 5.12572 6.51599C5.12572 3.92969 6.37078 2.2911 8.34144 2.2911ZM14.3685 9.04615C14.4525 11.1828 16.1177 12.5 18.6536 12.5C21.3195 12.5 23 11.1184 23 8.91764C23 7.19075 22.0528 6.21886 19.8148 5.68076L18.5468 5.37553C17.1948 5.03819 16.6372 4.5884 16.6372 3.81732C16.6372 2.85347 17.4774 2.21091 18.7225 2.21091C19.9828 2.21091 20.8459 2.86151 20.9376 3.94583H22.8167C22.7708 1.90568 21.1668 0.524099 18.7378 0.524099C16.3393 0.524099 14.6359 1.91364 14.6359 3.96989C14.6359 5.6245 15.5983 6.65262 17.6301 7.14262L19.0584 7.49604C20.4486 7.84142 21.0139 8.32333 21.0139 9.15866C21.0139 10.1225 20.0896 10.8133 18.7606 10.8133C17.4163 10.8133 16.4004 10.1145 16.2782 9.04621H14.3686L14.3685 9.04615Z" fill="#1D1D1B"/>
</svg>
