<svg width="24" height="12" viewBox="0 0 24 12" fill="none" xmlns="http://www.w3.org/2000/svg">
<path d="M1.07567 11.8071H2.97765V3.2932H1.07567V11.8071ZM2.02285 2.17668C2.61865 2.17668 3.08459 1.69475 3.08459 1.09236C3.08459 0.481913 2.61865 0 2.02285 0C1.43469 0 0.96875 0.481934 0.96875 1.09236C0.96875 1.69477 1.43469 2.17668 2.02285 2.17668ZM9.31019 0.024037C6.09447 0.024037 4.07782 2.32925 4.07782 6.01603C4.07782 9.70281 6.09427 12 9.31019 12C12.5183 12 14.5349 9.70281 14.5349 6.01603C14.5349 2.32925 12.5185 0.024037 9.31019 0.024037ZM9.31019 1.7911C11.2733 1.7911 12.5259 3.42965 12.5259 6.01599C12.5259 8.59426 11.2732 10.2329 9.31019 10.2329C7.33949 10.2329 6.09447 8.59431 6.09447 6.01599C6.09447 3.42969 7.33953 1.7911 9.31019 1.7911ZM15.3372 8.54615C15.4213 10.6828 17.0864 12 19.6224 12C22.2882 12 23.9688 10.6184 23.9688 8.41764C23.9688 6.69075 23.0216 5.71886 20.7835 5.18076L19.5156 4.87553C18.1635 4.53819 17.6059 4.0884 17.6059 3.31732C17.6059 2.35347 18.4462 1.71091 19.6912 1.71091C20.9516 1.71091 21.8146 2.36151 21.9063 3.44583H23.7854C23.7396 1.40568 22.1355 0.0240987 19.7066 0.0240987C17.308 0.0240987 15.6046 1.41364 15.6046 3.46989C15.6046 5.1245 16.5671 6.15262 18.5988 6.64262L20.0272 6.99604C21.4174 7.34142 21.9826 7.82333 21.9826 8.65866C21.9826 9.62251 21.0584 10.3133 19.7294 10.3133C18.385 10.3133 17.3692 9.61449 17.2469 8.54621H15.3373L15.3372 8.54615Z" fill="white"/>
</svg>
