<svg width="52" height="13" viewBox="0 0 52 13" fill="none" xmlns="http://www.w3.org/2000/svg">
<path d="M3.98341e-05 12.3067H2.03904V7.08336C2.03904 6.0532 2.72688 5.30472 3.70955 5.30472C4.65943 5.30472 5.24904 5.89224 5.24904 6.84191V12.3065H7.23071V7.03497C7.23071 6.01286 7.90218 5.30462 8.88482 5.30462C9.88384 5.30462 10.4407 5.90018 10.4407 6.94645V12.3066H12.4797V6.45568C12.4797 4.74948 11.3578 3.61469 9.64631 3.61469C8.39343 3.61469 7.36175 4.27463 6.94395 5.32895H6.89482C6.57547 4.2344 5.69927 3.61469 4.47106 3.61469C3.29189 3.61469 2.37475 4.2666 1.99804 5.25653H1.9571V3.77566H0V12.3067L3.98341e-05 12.3067ZM16.9429 10.9305C16.0585 10.9305 15.4689 10.4878 15.4689 9.78763C15.4689 9.1116 16.0339 8.67699 17.0166 8.61261L19.0228 8.49188V9.14379C19.0228 10.174 18.0975 10.9305 16.9429 10.9305V10.9305ZM16.3287 12.4435C17.4424 12.4435 18.5315 11.8721 19.0311 10.9466H19.072V12.3067H21.0373V6.43149C21.0373 4.71723 19.637 3.59854 17.4834 3.59854C15.2724 3.59854 13.8887 4.74138 13.7985 6.33486H15.6901C15.8211 5.62662 16.4353 5.16787 17.4016 5.16787C18.4088 5.16787 19.0229 5.68295 19.0229 6.57629V7.18797L16.73 7.31674C14.6173 7.44551 13.43 8.35496 13.43 9.86805C13.43 11.4052 14.6501 12.4435 16.3288 12.4435L16.3287 12.4435ZM29.9879 6.81781C29.8487 5.02307 28.432 3.59854 26.1392 3.59854C23.6172 3.59854 21.9793 5.3128 21.9793 8.04103C21.9793 10.8097 23.6171 12.4755 26.1556 12.4755C28.3339 12.4755 29.8323 11.22 29.996 9.31246H28.0717C27.8833 10.2782 27.2119 10.8577 26.1801 10.8577C24.8863 10.8577 24.0511 9.82754 24.0511 8.04082C24.0511 6.28632 24.8781 5.22393 26.1638 5.22393C27.2528 5.22393 27.8998 5.90802 28.0635 6.81748H29.9879L29.9879 6.81781ZM36.2854 0.5C32.838 0.5 30.6761 2.80984 30.6761 6.50402C30.6761 10.1982 32.8378 12.5 36.2854 12.5C39.7246 12.5 41.8865 10.1982 41.8865 6.50402C41.8865 2.80984 39.7248 0.5 36.2854 0.5ZM36.2854 2.27061C38.3899 2.27061 39.7328 3.91245 39.7328 6.50398C39.7328 9.08743 38.3899 10.7293 36.2854 10.7293C34.1727 10.7293 32.838 9.08747 32.838 6.50398C32.838 3.91249 34.1728 2.27061 36.2854 2.27061ZM42.7467 9.03922C42.8367 11.1801 44.6219 12.5 47.3405 12.5C50.1984 12.5 52 11.1157 52 8.91045C52 7.1801 50.9846 6.20626 48.5853 5.66707L47.226 5.36123C45.7766 5.02321 45.1788 4.57252 45.1788 3.79989C45.1788 2.83411 46.0796 2.19026 47.4143 2.19026C48.7654 2.19026 49.6907 2.84217 49.789 3.92866H51.8034C51.7543 1.88442 50.0347 0.500062 47.4307 0.500062C44.8594 0.500062 43.0333 1.89239 43.0333 3.95277C43.0333 5.6107 44.0651 6.64089 46.2432 7.13186L47.7745 7.48599C49.2648 7.83207 49.8708 8.31495 49.8708 9.15196C49.8708 10.1177 48.88 10.8099 47.4552 10.8099C46.014 10.8099 44.925 10.1097 44.7939 9.03928H42.7468L42.7467 9.03922Z" fill="#1D1D1B"/>
</svg>
