<svg width="53" height="12" viewBox="0 0 53 12" fill="none" xmlns="http://www.w3.org/2000/svg">
<path d="M0.96879 11.8067H3.00779V6.58336C3.00779 5.5532 3.69563 4.80472 4.6783 4.80472C5.62818 4.80472 6.21779 5.39224 6.21779 6.34191V11.8065H8.19946V6.53497C8.19946 5.51286 8.87093 4.80462 9.85357 4.80462C10.8526 4.80462 11.4094 5.40018 11.4094 6.44645V11.8066H13.4484V5.95568C13.4484 4.24948 12.3266 3.11469 10.6151 3.11469C9.36218 3.11469 8.3305 3.77463 7.9127 4.82895H7.86357C7.54422 3.7344 6.66802 3.11469 5.43981 3.11469C4.26064 3.11469 3.3435 3.7666 2.96679 4.75653H2.92585V3.27566H0.96875V11.8067L0.96879 11.8067ZM17.9116 10.4305C17.0272 10.4305 16.4377 9.98784 16.4377 9.28763C16.4377 8.6116 17.0027 8.17699 17.9853 8.11261L19.9916 7.99188V8.64379C19.9916 9.67396 19.0662 10.4305 17.9116 10.4305V10.4305ZM17.2975 11.9435C18.4111 11.9435 19.5003 11.3721 19.9998 10.4466H20.0408V11.8067H22.0061V5.93149C22.0061 4.21723 20.6058 3.09854 18.4522 3.09854C16.2412 3.09854 14.8574 4.24138 14.7673 5.83486H16.6589C16.7899 5.12662 17.404 4.66787 18.3703 4.66787C19.3775 4.66787 19.9917 5.18295 19.9917 6.07629V6.68797L17.6987 6.81674C15.5861 6.94551 14.3987 7.85496 14.3987 9.36805C14.3987 10.9052 15.6188 11.9435 17.2975 11.9435L17.2975 11.9435ZM30.9566 6.31781C30.8174 4.52307 29.4008 3.09854 27.108 3.09854C24.5859 3.09854 22.9481 4.8128 22.9481 7.54103C22.9481 10.3097 24.5858 11.9755 27.1243 11.9755C29.3026 11.9755 30.8011 10.72 30.9648 8.81246H29.0404C28.8521 9.77824 28.1806 10.3577 27.1489 10.3577C25.855 10.3577 25.0198 9.32754 25.0198 7.54082C25.0198 5.78632 25.8469 4.72393 27.1325 4.72393C28.2216 4.72393 28.8685 5.40802 29.0323 6.31748H30.9566L30.9566 6.31781ZM37.2542 0C33.8068 0 31.6448 2.30984 31.6448 6.00402C31.6448 9.6982 33.8066 12 37.2542 12C40.6934 12 42.8553 9.6982 42.8553 6.00402C42.8553 2.30984 40.6936 0 37.2542 0ZM37.2542 1.77061C39.3586 1.77061 40.7015 3.41245 40.7015 6.00398C40.7015 8.58743 39.3586 10.2293 37.2542 10.2293C35.1415 10.2293 33.8068 8.58747 33.8068 6.00398C33.8068 3.41249 35.1415 1.77061 37.2542 1.77061ZM43.7154 8.53922C43.8055 10.6801 45.5906 12 48.3093 12C51.1672 12 52.9688 10.6157 52.9688 8.41045C52.9688 6.6801 51.9533 5.70626 49.5541 5.16707L48.1947 4.86123C46.7453 4.52321 46.1476 4.07252 46.1476 3.29989C46.1476 2.33411 47.0483 1.69026 48.3831 1.69026C49.7342 1.69026 50.6595 2.34217 50.7578 3.42866H52.7722C52.7231 1.38442 51.0034 6.1808e-05 48.3995 6.1808e-05C45.8282 6.1808e-05 44.0021 1.39239 44.0021 3.45277C44.0021 5.1107 45.0338 6.14089 47.2119 6.63186L48.7432 6.98599C50.2336 7.33207 50.8395 7.81495 50.8395 8.65196C50.8395 9.61774 49.8487 10.3099 48.424 10.3099C46.9827 10.3099 45.8937 9.6097 45.7627 8.53928H43.7155L43.7154 8.53922Z" fill="white"/>
</svg>
