<svg width="13" height="13" viewBox="0 0 13 13" fill="none" xmlns="http://www.w3.org/2000/svg">
<path d="M5.9493 2.57809C6.25577 1.51869 6.409 0.988989 6.6452 0.855097C6.84913 0.739504 7.09878 0.739504 7.30271 0.855097C7.53891 0.988989 7.69215 1.51869 7.99861 2.57809L8.39869 3.96112C8.48112 4.24607 8.52234 4.38854 8.60636 4.49284C8.6805 4.58488 8.77777 4.65555 8.88821 4.69762C9.01337 4.7453 9.16161 4.74047 9.45808 4.73081L10.897 4.68393C11.9993 4.64802 12.5504 4.63007 12.7508 4.81334C12.9237 4.97156 13.0009 5.20899 12.9539 5.43866C12.8996 5.70468 12.4432 6.0141 11.5303 6.63294L10.3386 7.44082C10.0931 7.60727 9.97032 7.69049 9.89709 7.80263C9.83247 7.90158 9.79531 8.01593 9.78943 8.13396C9.78276 8.26773 9.83316 8.40722 9.93396 8.6862L10.4232 10.0403C10.798 11.0775 10.9854 11.5961 10.873 11.8432C10.7759 12.0566 10.574 12.2034 10.341 12.2297C10.0712 12.2602 9.63592 11.9217 8.76529 11.2448L7.62869 10.3611C7.39452 10.179 7.27743 10.088 7.14815 10.053C7.03407 10.0221 6.91384 10.0221 6.79977 10.053C6.67048 10.088 6.55339 10.179 6.31922 10.3611L5.18263 11.2448C4.31199 11.9217 3.87667 12.2602 3.60688 12.2297C3.37395 12.2034 3.17198 12.0566 3.07494 11.8432C2.96255 11.5961 3.14993 11.0775 3.5247 10.0403L4.01395 8.6862C4.11475 8.40722 4.16515 8.26773 4.15848 8.13396C4.1526 8.01593 4.11544 7.90158 4.05083 7.80263C3.97759 7.69049 3.85483 7.60727 3.6093 7.44082L2.4176 6.63294C1.50475 6.0141 1.04832 5.70468 0.993974 5.43866C0.947055 5.20899 1.0242 4.97156 1.19715 4.81334C1.39749 4.63007 1.94861 4.64802 3.05087 4.68393L4.48983 4.73081C4.78631 4.74047 4.93454 4.7453 5.05971 4.69762C5.17014 4.65555 5.26741 4.58488 5.34155 4.49284C5.42558 4.38854 5.46679 4.24607 5.54922 3.96112L5.9493 2.57809Z" fill="url(#paint0_linear_14956_222)"/>
<defs>
<linearGradient id="paint0_linear_14956_222" x1="12.974" y1="7.03598" x2="0.307291" y2="7.03598" gradientUnits="userSpaceOnUse">
<stop offset="0.458564" stop-color="#CCCCCC"/>
<stop offset="0.458664" stop-color="#FFE810"/>
</linearGradient>
</defs>
</svg>
