<svg width="13" height="13" viewBox="0 0 13 13" fill="none" xmlns="http://www.w3.org/2000/svg">
<path d="M5.00204 2.57809C5.3085 1.51869 5.46173 0.988989 5.69794 0.855097C5.90186 0.739504 6.15152 0.739504 6.35544 0.855097C6.59165 0.988989 6.74488 1.51869 7.05135 2.57809L7.45143 3.96112C7.53386 4.24607 7.57507 4.38854 7.65909 4.49284C7.73323 4.58488 7.8305 4.65555 7.94094 4.69762C8.0661 4.7453 8.21434 4.74047 8.51081 4.73081L9.94978 4.68393C11.052 4.64802 11.6032 4.63007 11.8035 4.81334C11.9764 4.97156 12.0536 5.20899 12.0067 5.43866C11.9523 5.70468 11.4959 6.0141 10.5831 6.63294L9.39135 7.44082C9.14582 7.60727 9.02305 7.69049 8.94982 7.80263C8.8852 7.90158 8.84805 8.01593 8.84216 8.13396C8.8355 8.26773 8.8859 8.40722 8.9867 8.6862L9.47595 10.0403C9.85071 11.0775 10.0381 11.5961 9.9257 11.8432C9.82867 12.0566 9.6267 12.2034 9.39377 12.2297C9.12398 12.2602 8.68866 11.9217 7.81802 11.2448L6.68143 10.3611C6.44725 10.179 6.33016 10.088 6.20088 10.053C6.08681 10.0221 5.96657 10.0221 5.8525 10.053C5.72322 10.088 5.60613 10.179 5.37195 10.3611L4.23536 11.2448C3.36472 11.9217 2.92941 12.2602 2.65961 12.2297C2.42669 12.2034 2.22471 12.0566 2.12768 11.8432C2.01528 11.5961 2.20267 11.0775 2.57743 10.0403L3.06668 8.6862C3.16748 8.40722 3.21788 8.26773 3.21122 8.13396C3.20533 8.01593 3.16818 7.90158 3.10356 7.80263C3.03033 7.69049 2.90756 7.60727 2.66203 7.44082L1.47033 6.63294C0.55748 6.0141 0.101056 5.70468 0.0467088 5.43866C-0.000210832 5.20899 0.0769357 4.97156 0.249889 4.81334C0.450219 4.63007 1.00135 4.64802 2.1036 4.68393L3.54257 4.73081C3.83904 4.74047 3.98728 4.7453 4.11244 4.69762C4.22288 4.65555 4.32015 4.58488 4.39429 4.49284C4.47831 4.38854 4.51952 4.24607 4.60195 3.96112L5.00204 2.57809Z" fill="#FFE810"/>
</svg>
